<?xml version="1.0" encoding="UTF-8" standalone="no"?>
<!-- Created with Inkscape (http://www.inkscape.org/) -->

<svg
   xmlns:dc="http://purl.org/dc/elements/1.1/"
   xmlns:cc="http://creativecommons.org/ns#"
   xmlns:rdf="http://www.w3.org/1999/02/22-rdf-syntax-ns#"
   xmlns:svg="http://www.w3.org/2000/svg"
   xmlns="http://www.w3.org/2000/svg"
   xmlns:xlink="http://www.w3.org/1999/xlink"
   xmlns:sodipodi="http://sodipodi.sourceforge.net/DTD/sodipodi-0.dtd"
   xmlns:inkscape="http://www.inkscape.org/namespaces/inkscape"
   width="26.684792mm"
   height="26.567862mm"
   viewBox="0 0 94.552411 94.138088"
   id="svg2"
   version="1.1"
   inkscape:version="0.91 r13725"
   sodipodi:docname="ic_transport.svg">
  <defs
     id="defs4">
    <linearGradient
       inkscape:collect="always"
       id="linearGradient6810">
      <stop
         style="stop-color:#a0e8eb;stop-opacity:1"
         offset="0"
         id="stop6812" />
      <stop
         style="stop-color:#e2e8eb;stop-opacity:0.80769229"
         offset="1"
         id="stop6814" />
    </linearGradient>
    <linearGradient
       inkscape:collect="always"
       id="linearGradient6722">
      <stop
         style="stop-color:#e2e8eb;stop-opacity:1;"
         offset="0"
         id="stop6724" />
      <stop
         style="stop-color:#e2e8eb;stop-opacity:1"
         offset="1"
         id="stop6726" />
    </linearGradient>
    <linearGradient
       inkscape:collect="always"
       id="linearGradient6703">
      <stop
         style="stop-color:#97cae0;stop-opacity:1"
         offset="0"
         id="stop6705" />
      <stop
         style="stop-color:#d0b8ba;stop-opacity:1"
         offset="1"
         id="stop6707" />
    </linearGradient>
    <inkscape:perspective
       sodipodi:type="inkscape:persp3d"
       inkscape:vp_x="0 : 526.18107 : 1"
       inkscape:vp_y="0 : 999.99994 : 0"
       inkscape:vp_z="744.09447 : 526.18108 : 1"
       inkscape:persp3d-origin="372.04722 : 350.78737 : 1"
       id="perspective4189" />
    <linearGradient
       inkscape:collect="always"
       xlink:href="#linearGradient6703"
       id="linearGradient6709"
       x1="399.92697"
       y1="382.39822"
       x2="405.42776"
       y2="399.01523"
       gradientUnits="userSpaceOnUse" />
    <linearGradient
       inkscape:collect="always"
       xlink:href="#linearGradient6722"
       id="linearGradient6728"
       x1="377.97855"
       y1="337.12115"
       x2="450.23276"
       y2="404.11954"
       gradientUnits="userSpaceOnUse" />
    <filter
       style="color-interpolation-filters:sRGB"
       inkscape:label="Blur"
       id="filter6742">
      <feGaussianBlur
         stdDeviation="2 2"
         result="fbSourceGraphic"
         id="feGaussianBlur6744" />
      <feColorMatrix
         result="fbSourceGraphicAlpha"
         in="fbSourceGraphic"
         values="0 0 0 -1 0 0 0 0 -1 0 0 0 0 -1 0 0 0 0 1 0"
         id="feColorMatrix8104" />
      <feGaussianBlur
         id="feGaussianBlur8106"
         stdDeviation="3.61 0.01"
         result="blur"
         in="fbSourceGraphic" />
    </filter>
    <filter
       style="color-interpolation-filters:sRGB"
       inkscape:label="Blur"
       id="filter6806">
      <feGaussianBlur
         stdDeviation="1.1 0.71"
         result="blur"
         id="feGaussianBlur6808" />
    </filter>
    <linearGradient
       inkscape:collect="always"
       xlink:href="#linearGradient6810"
       id="linearGradient6816"
       x1="369.48917"
       y1="372.29971"
       x2="436.71347"
       y2="343.30835"
       gradientUnits="userSpaceOnUse" />
    <filter
       style="color-interpolation-filters:sRGB"
       inkscape:label="Blur"
       id="filter7838">
      <feGaussianBlur
         stdDeviation="1.1 0.71"
         result="blur"
         id="feGaussianBlur7840" />
    </filter>
    <filter
       style="color-interpolation-filters:sRGB"
       inkscape:label="Blur"
       id="filter7858">
      <feGaussianBlur
         stdDeviation="1.1 0.71"
         result="blur"
         id="feGaussianBlur7860" />
    </filter>
    <filter
       style="color-interpolation-filters:sRGB"
       inkscape:label="Blur"
       id="filter7862">
      <feGaussianBlur
         stdDeviation="1.1 0.71"
         result="blur"
         id="feGaussianBlur7864" />
    </filter>
    <clipPath
       clipPathUnits="userSpaceOnUse"
       id="clipPath4644">
      <rect
         style="opacity:0.97000002;fill:none;fill-opacity:1;fill-rule:evenodd;stroke:none;stroke-linejoin:miter;stroke-opacity:1"
         id="rect4646"
         width="95.177811"
         height="94.362526"
         x="352.85654"
         y="320.20401" />
    </clipPath>
  </defs>
  <sodipodi:namedview
     id="base"
     pagecolor="#ffffff"
     bordercolor="#666666"
     borderopacity="1.0"
     inkscape:pageopacity="0.0"
     inkscape:pageshadow="2"
     inkscape:zoom="5.6568543"
     inkscape:cx="13.402765"
     inkscape:cy="38.067273"
     inkscape:document-units="px"
     inkscape:current-layer="layer5"
     showgrid="false"
     inkscape:window-width="1920"
     inkscape:window-height="1036"
     inkscape:window-x="3"
     inkscape:window-y="0"
     inkscape:window-maximized="0"
     showguides="true"
     fit-margin-top="0"
     fit-margin-left="0"
     fit-margin-right="0"
     fit-margin-bottom="0" />
  <metadata
     id="metadata7">
    <rdf:RDF>
      <cc:Work
         rdf:about="">
        <dc:format>image/svg+xml</dc:format>
        <dc:type
           rdf:resource="http://purl.org/dc/dcmitype/StillImage" />
        <dc:title />
      </cc:Work>
    </rdf:RDF>
  </metadata>
  <g
     inkscape:groupmode="layer"
     id="layer2"
     inkscape:label="Border"
     style="display:none"
     transform="translate(-352.94153,-320.44468)"
     sodipodi:insensitive="true">
    <rect
       style="fill:none;fill-rule:evenodd;stroke:#dae1e4;stroke-width:2;stroke-linecap:butt;stroke-linejoin:miter;stroke-miterlimit:4;stroke-dasharray:none;stroke-opacity:1"
       id="rect3366"
       width="94.552414"
       height="94.138092"
       x="352.94153"
       y="320.44467"
       ry="26.926758" />
  </g>
  <g
     transform="translate(-352.94153,-320.44468)"
     style="display:inline"
     inkscape:label="Border copy"
     id="g4180"
     inkscape:groupmode="layer" />
  <g
     inkscape:groupmode="layer"
     id="layer10"
     inkscape:label="Tram shadow"
     style="display:inline"
     transform="translate(-352.94153,-320.44468)" />
  <g
     style="display:inline"
     inkscape:label="Rails shadow"
     id="g6699"
     inkscape:groupmode="layer"
     transform="translate(-352.94153,-320.44468)" />
  <g
     inkscape:groupmode="layer"
     id="layer3"
     inkscape:label="Rails"
     style="display:inline"
     transform="translate(-352.94153,-320.44468)" />
  <g
     inkscape:groupmode="layer"
     id="layer4"
     inkscape:label="Tram"
     style="display:inline;opacity:1"
     transform="translate(-352.94153,-320.44468)" />
  <g
     inkscape:groupmode="layer"
     id="layer13"
     inkscape:label="Tram windows shadow inner"
     style="display:inline"
     transform="translate(-352.94153,-320.44468)" />
  <g
     inkscape:groupmode="layer"
     id="layer5"
     inkscape:label="Tram windows"
     style="display:inline"
     transform="translate(-352.94153,-320.44468)">
    <g
       id="g4589"
       transform="translate(-1.0606617,-1.0606601)">
      <path
         transform="matrix(0.99552936,0,0,1.000384,1.66249,-0.14295381)"
         inkscape:connector-curvature="0"
         id="path6712"
         d="m 410.875,330.61133 -21.875,0.125 -3.875,4.625 6,33.75 -14.64844,36.33008 4.95117,3.92773 c 0.59813,-1.36088 2.60681,-2.45567 5.5625,-2.04492 0.79517,0.1105 1.51744,0.56564 2.31836,0.63672 0.0371,0.003 0.0566,-0.057 0.0937,-0.0586 0.5257,-0.0225 1.05199,0.0248 1.57813,0.0312 1.10165,0.20207 2.2069,0.37789 3.3125,0.55469 0.36014,0.0576 0.71823,0.13795 1.08008,0.1836 0.2681,0.0338 0.53921,0.0332 0.80859,0.0547 0.34257,0.0273 0.68309,0.0613 1.02539,0.0918 0.36669,0.0118 0.73473,0.0298 1.10156,0.0352 0.39377,0.006 0.78796,-0.0127 1.18164,-0.002 1.13427,0.0299 1.52694,0.0918 2.61329,0.13672 0.28105,0.0116 0.45965,0.003 0.66796,0.008 0.52714,-1.10875 1.96798,-1.94938 4.34571,-1.78125 0.79336,0.0561 1.59353,-0.0604 2.38672,0 1.26412,0.0963 2.56291,0.3861 3.73047,0.89454 0.30882,0.13447 0.60415,0.29805 0.90429,0.45117 0.32331,-1.86218 2.64286,-2.96785 5.73828,-1.11328 0.22169,0.13281 0.34109,0.2065 0.48828,0.29687 0.0928,-0.006 0.18342,-0.0149 0.2793,-0.0137 0.0236,-0.008 0.0283,-0.0118 0.043,-0.0156 0.053,-0.0138 0.1068,-0.0229 0.16016,-0.0351 -0.0558,0.0215 -0.1107,0.0339 -0.16602,0.0508 0.073,0.002 0.13419,0.0109 0.20703,0.0156 0.17912,-0.0639 0.21873,-0.0685 0.46289,-0.16211 0.0357,-0.0137 -0.0771,0.005 -0.11523,0.008 -0.12839,0.0291 -0.25646,0.0565 -0.38477,0.0859 0.31891,-0.12327 0.64079,-0.28852 0.92578,-0.15039 0.0185,0.009 0.0345,0.022 0.0527,0.0312 -0.20282,-0.96019 0.38496,-0.74816 1.11914,-0.15625 0.0693,-0.007 0.15843,9.4e-4 0.23437,0 0.17573,-0.0453 0.30298,-0.0786 0.53516,-0.14257 0.19542,-1.75754 1.83103,-2.83529 3.88086,-2.00782 -0.30321,-0.6647 -0.4422,-1.02989 -0.42578,-1.98437 0.0138,-0.4429 0.0574,-0.88534 0.0293,-1.32813 -0.0416,-0.25762 -0.14399,-0.51122 -0.125,-0.77148 0.0533,-0.73076 0.19088,-1.35596 0.27149,-1.67578 -0.0291,0.0613 -0.0176,0.0409 -0.0508,0.10937 -0.0178,0.0534 -0.0127,0.0443 -0.0371,0.11524 -0.009,0.0271 0.0109,-0.0582 0.0234,-0.084 0.01,-0.02 0.004,-0.0119 0.0137,-0.0312 0.053,-0.15881 0.0726,-0.22548 0.084,-0.25976 -0.18704,-0.12509 -0.37597,-0.2463 -0.56054,-0.375 -0.3777,-0.26337 -0.74868,-0.5366 -1.12305,-0.80469 -2.60704,-1.8669 -2.80261,-3.9276 -1.6582,-5.02149 -0.86414,-1.88481 0.31629,-3.61065 2.34765,-3.75781 -0.9007,-1.77554 -0.36594,-3.26388 0.88281,-3.84765 -2.42184,-2.45885 -0.83894,-5.68338 2.93164,-4.8086 -1.79013,-2.0454 -1.05195,-4.05152 1.27149,-4.39648 -2.80634,-2.3514 -1.45273,-5.93345 2.37305,-5.19141 -2.85117,-1.70159 -3.00422,-4.30605 -1.39649,-5.4082 -1.82618,-1.39303 -1.99585,-3.33527 -0.83594,-4.42188 -1.51264,-2.28634 -1.62456,-4.27715 -0.76953,-5.23242 -2.24891,-2.43321 -1.71068,-4.73832 -0.0645,-5.48828 L 410.875,330.61133 Z m 16.47461,68.88086 c 0.0372,-0.0781 0.028,-0.0632 0.0606,-0.13281 -0.008,-0.005 -0.0153,-0.0122 -0.0234,-0.0176 -0.003,0.0139 -0.009,0.0375 -0.0371,0.15039 z m -3.63086,7.76758 c -0.17156,0.0316 -0.34334,0.076 -0.50586,0.14257 0.10072,-1.1e-4 0.18827,-0.01 0.30664,0.002 l 0.0899,-0.0352 c 6.5e-4,-0.002 0.003,-0.004 0.004,-0.006 0.002,-0.006 -0.0226,0.005 -0.0176,0.002 0.0725,-0.0375 0.0744,-0.0364 0.11719,-0.0586 0.002,-0.0158 0.004,-0.0312 0.006,-0.0469 z m -0.10937,0.10937 c -0.004,0.0104 -0.015,0.0303 -0.0195,0.041 0.079,0.007 0.0618,0.006 0.10938,0.01 0.002,-0.0308 0.007,-0.0595 0.01,-0.0898 l -0.0996,0.0391 z m -0.66016,0.0332 c -0.19861,0.0215 -0.39096,0.0751 -0.58008,0.14454 0.10894,-0.0112 0.21752,-0.0195 0.31641,-0.01 0.0679,-0.0196 0.22966,-0.0623 0.32031,-0.0859 -0.0186,-0.0153 -0.0383,-0.034 -0.0566,-0.0488 z m -0.58008,0.14454 c -0.13634,0.014 -0.2754,0.0413 -0.41992,0.0801 0.032,0.0181 0.0643,0.0356 0.0957,0.0547 0.094,-0.0399 0.23836,-0.10336 0.32422,-0.13476 z m -0.41992,0.0801 c -0.0399,-0.0225 -0.0783,-0.0475 -0.11914,-0.0684 0.007,0.034 0.006,0.0548 0.0156,0.0918 0.035,-0.0104 0.0687,-0.0141 0.10352,-0.0234 z m -1.26758,0.10352 c -0.0126,-2.7e-4 -0.0245,1.6e-4 -0.0371,0 -0.0637,0.0209 -0.15559,0.0519 -0.11523,0.0449 0.0499,-0.009 0.10173,-0.0295 0.15234,-0.0449 z m 17.2168,-22.76758 c -0.032,0.0161 -0.062,0.0344 -0.0937,0.0508 -0.0151,0.0811 -0.0234,0.14242 -0.0371,0.22071 0.004,-0.002 0.006,-0.002 0.01,-0.004 0.0333,-0.0839 0.078,-0.17613 0.1211,-0.26758 z m 0.44922,2.15234 c -0.0337,0.007 -0.21791,0.0524 -0.38477,0.0937 -0.004,0.017 -0.0112,0.0375 -0.0156,0.0547 0.18781,-0.0667 0.45441,-0.15974 0.40039,-0.14844 z m 0.0156,0.0879 c -0.083,-0.0219 -0.26923,0.029 -0.41992,0.0801 -0.10517,0.40846 -0.21896,0.82899 -0.36524,1.30078 l 0.002,0 c 0.28637,-0.42453 0.5613,-0.85693 0.81054,-1.30468 0.0237,-0.0426 0.009,-0.0666 -0.0273,-0.0762 z m -1.46289,1.45899 c -0.0354,0.36505 -0.0865,0.72917 -0.14453,1.0918 0.12922,-0.17743 0.25184,-0.35843 0.37891,-0.53711 0.022,-0.12901 0.0589,-0.31157 0.0879,-0.4668 -0.0684,0.0261 -0.1892,-0.0209 -0.32227,-0.0879 z m 9.42188,3.80859 c -0.18984,0.44131 -0.36963,0.88572 -0.46875,1.35352 -0.0436,0.20568 0.0719,0.0282 0.21679,-0.25 -0.0901,0.33393 -0.18493,0.66673 -0.27734,1 0.15317,-0.25892 0.33435,-0.50357 0.45898,-0.77734 0.0306,-0.0673 0.0527,-0.20297 0.0723,-0.32032 l 0,-0.44922 c -0.0836,0.18558 -0.16129,0.367 -0.25391,0.54493 0.0817,-0.30268 0.16766,-0.60433 0.25196,-0.90625 l 0,-0.19532 z m 0.004,1.38672 c -0.0434,0.21578 -0.10216,0.42508 -0.16992,0.63477 -0.002,0.0213 8.1e-4,0.0435 -0.004,0.0645 -0.0142,0.0632 -0.0306,0.0848 -0.0644,0.18359 -0.10009,0.59295 -0.16253,0.98513 -0.19922,1.22852 0.0258,-7.2e-4 0.0355,0.0567 0.043,0.12305 0.11783,-0.5071 0.23229,-0.98655 -0.0117,0.52734 -0.007,0.0412 -0.0275,0.11211 -0.0449,0.17969 -0.003,0.019 -0.002,0.0339 -0.006,0.0527 -0.1,0.33347 -0.0434,0.13825 0.006,-0.0527 0.0498,-0.28001 0.0737,-0.55611 0.0566,-0.70703 -0.10285,0.44263 -0.14716,0.5681 -0.043,-0.12305 -0.10353,0.003 -0.39032,0.77396 -0.92187,2.89063 0.12185,-0.16238 0.23799,-0.32879 0.36328,-0.48829 0.0422,-0.0537 -0.10766,0.37736 -0.0762,0.28711 0.0858,-0.12043 0.16532,-0.24541 0.25195,-0.36523 0.22315,-0.30866 -0.73103,1.3153 -0.64063,0.94531 0.002,-0.007 0.002,-0.008 0.004,-0.0156 -0.1936,0.27671 -0.50848,0.73121 -0.38672,0.54492 0.12564,-0.19224 0.26232,-0.37725 0.39258,-0.56641 0.0388,-0.15856 0.0555,-0.19741 0.0918,-0.34179 -0.43378,0.57798 -0.85107,1.16886 -1.22071,1.78906 -0.079,0.13245 0.17532,-0.10517 0.33985,-0.25586 0.0787,-0.0833 0.15689,-0.1674 0.23633,-0.25 0.0522,-0.0543 -0.0919,0.12012 -0.14844,0.16992 -0.02,0.0176 -0.0595,0.0541 -0.0879,0.0801 -0.19572,0.20699 -0.39236,0.41391 -0.58789,0.62109 -0.0768,0.0574 -0.15339,0.11483 -0.23047,0.17188 -0.0514,0.0864 -0.10023,0.1753 -0.16016,0.25586 -0.0235,0.0316 -0.0498,0.0608 -0.0742,0.0918 -0.0426,0.1093 -0.0892,0.21608 -0.13476,0.32422 -0.0352,0.0837 -0.0503,0.17951 -0.10742,0.25 -0.64151,0.7906 -0.91332,1.00374 -1.05274,1.0957 -0.0913,0.12846 -0.15851,0.24294 -0.22851,0.35938 -0.003,0.012 -0.004,0.0102 -0.008,0.0234 0.0576,-0.099 0.0847,-0.13673 0.12696,-0.20508 -0.0813,0.17417 -0.16279,0.34731 -0.24414,0.52148 -0.13385,0.25329 -0.22668,0.41919 -0.3125,0.56055 l 5.27148,-4.16406 -0.0176,-6.44141 z m -0.23828,0.88281 c 0.005,-0.0312 0.006,-0.0321 0.0117,-0.0645 -0.0329,0.10297 -0.0685,0.2099 -0.0957,0.31055 -0.0225,0.0835 0.0387,-0.11404 0.084,-0.2461 z m 0.0117,-0.0645 c 0.0195,-0.0609 0.0367,-0.12201 0.0566,-0.18359 0.009,-0.0827 0.009,-0.1667 0.0137,-0.25 -0.0464,0.27026 -0.0336,0.21676 -0.0703,0.43359 z m -2.97656,6.61914 c -0.0155,0.0119 -0.0315,0.0231 -0.0469,0.0352 -0.0872,0.0688 -0.23866,0.22881 0.0469,-0.0352 z m -9.7461,1.66016 c -1.4e-4,0.003 1.6e-4,0.005 0,0.008 0.0416,0.0411 0.084,0.0938 0.13282,0.1582 l 0.002,0 c 0.0151,-0.0259 0.0301,-0.052 0.0449,-0.0781 -0.0568,-0.0277 -0.12291,-0.0596 -0.17969,-0.0879 z m 0.20703,0.10156 c -0.002,0.002 -0.004,0.002 -0.006,0.004 -0.006,0.008 -0.0165,0.0302 -0.0234,0.0391 0.0221,-0.0116 0.0365,-0.0195 0.0547,-0.0293 -0.008,-0.004 -0.0172,-0.01 -0.0254,-0.0137 z m 0.0586,0.0293 c -0.0326,0.0266 -0.0645,0.054 -0.0977,0.0801 0.0175,0.0238 0.0428,0.0555 0.0547,0.0723 0.005,0.007 0.009,0.0146 0.0137,0.0215 0.0306,-0.0475 0.0616,-0.0948 0.0918,-0.14258 -0.021,-0.0101 -0.0421,-0.0214 -0.0625,-0.0312 z m -0.26953,0.004 c -10e-4,0.0267 -0.003,0.0534 -0.004,0.0801 0.005,0.007 0.009,0.013 0.0137,0.0195 0.009,-0.005 0.0174,-0.009 0.0254,-0.0137 -0.0176,-0.0319 -0.0213,-0.0561 -0.0352,-0.0859 z m 0.59765,0.15625 c -0.0654,0.0976 -0.13328,0.19918 -0.18945,0.27539 0.002,0.003 0.006,0.006 0.008,0.01 0.12072,-0.0624 0.21112,-0.11329 0.32617,-0.17383 -0.0365,-0.0266 -0.10391,-0.0808 -0.14257,-0.10937 -0.001,-6.8e-4 -7e-4,-0.001 -0.002,-0.002 z m -0.51562,0.006 c -0.004,0.007 -0.008,0.013 -0.0117,0.0195 0.0126,0.0175 0.0244,0.0354 0.0371,0.0527 0.0123,0.009 0.0248,0.0183 0.0371,0.0273 -0.0212,-0.0328 -0.0418,-0.0651 -0.0625,-0.0996 z m -0.0195,0.004 c -10e-4,8.8e-4 -0.003,0.001 -0.004,0.002 l 0.002,0.002 c 7e-4,-10e-4 10e-4,-0.003 0.002,-0.004 z m 7.80859,0.52734 c -0.0942,0.0684 -0.18898,0.13661 -0.2832,0.20508 -0.0943,0.0685 0.21797,-0.10845 0.2832,-0.20508 z m -17.55078,3.65039 c -0.0259,0.021 -0.0522,0.0415 -0.0781,0.0625 0.0271,-0.006 0.0515,-0.012 0.0762,-0.0176 6.2e-4,-0.0155 0.005,-0.0295 0.006,-0.0449 -3e-4,1.6e-4 -0.004,-1.7e-4 -0.004,0 z m -0.0781,0.0625 c -0.0279,0.007 -0.0507,0.013 -0.0781,0.0195 -0.009,0.0204 -0.0254,0.051 -0.0352,0.0723 0.0378,-0.0305 0.0755,-0.0613 0.11328,-0.0918 z m -0.11328,0.0918 c -0.0591,0.0476 -0.1185,0.095 -0.17773,0.14258 0.0244,0.0223 0.0478,0.0397 0.0723,0.0625 l 0.002,0 c 0.0331,-0.0673 0.0755,-0.1442 0.10351,-0.20508 z m -0.17773,0.14258 c -0.0509,-0.0465 -0.0999,-0.0868 -0.15039,-0.13086 -0.0435,0.01 -0.10262,0.0247 -0.14258,0.0332 0.0248,0.0134 0.0459,0.0328 0.0703,0.0469 0.0677,0.0237 0.12835,0.0364 0.20117,0.0684 0.007,-0.006 0.0143,-0.0118 0.0215,-0.0176 z m -0.22266,-0.0508 c -0.0376,-0.0131 -0.0758,-0.0287 -0.11133,-0.0391 -0.0586,0.0122 -0.16631,0.0419 -0.21484,0.0508 l 0.16992,-0.0645 c -0.0333,-0.009 -0.0725,-0.0277 -0.10351,-0.0332 -0.18198,0.10575 -0.33877,0.21688 -0.44922,0.32422 0.1186,0.0897 0.23268,0.18635 0.3457,0.28515 0.17324,-0.13943 0.34613,-0.27884 0.51953,-0.41796 -0.0525,-0.0347 -0.10188,-0.074 -0.15625,-0.10547 z m -0.36328,0.52343 c -0.0285,0.023 -0.0574,0.0454 -0.0859,0.0684 0.0512,-0.009 0.0784,-0.004 0.14063,-0.0195 -0.0182,-0.0162 -0.0364,-0.0328 -0.0547,-0.0488 z m 0.0547,0.0488 c 0.0868,0.0773 0.17268,0.15637 0.25781,0.23633 0.0786,-0.14623 0.12422,-0.25 0.19531,-0.38672 -0.1592,0.0547 -0.33602,0.12178 -0.45312,0.15039 z m 0.25781,0.23633 c -0.0618,0.11489 -0.10484,0.2057 -0.16797,0.32227 0.21009,0.0205 0.41841,0.049 0.625,0.0859 -0.15244,-0.13584 -0.30725,-0.26752 -0.45703,-0.4082 z m -0.002,-1 c -0.0646,0.0313 -0.12774,0.0615 -0.1875,0.0957 0.0371,0.0106 0.077,0.016 0.11133,0.0312 l 0.15234,-0.0586 c -0.0258,-0.0222 -0.0506,-0.047 -0.0762,-0.0684 z m -0.66602,0.15625 c -0.17469,0.0315 -0.23031,0.048 -0.30078,0.0606 0.0408,0.0255 0.0851,0.0452 0.125,0.0723 0.0425,-0.0505 0.10378,-0.0981 0.17578,-0.13281 z m -0.4707,0.0937 c -0.047,0.0126 -0.21633,0.056 -0.26172,0.0879 l -0.002,0 c -0.0242,0.017 -0.0369,0.027 -0.084,0.0566 0.12608,-0.0545 0.24136,-0.0983 0.34766,-0.14453 z m -1.18945,0.0664 c -0.0636,0.007 -0.12977,0.0227 -0.19532,0.0371 0.009,0.006 0.0241,0.0141 0.0332,0.0195 0.0595,-0.0212 0.10664,-0.0374 0.16211,-0.0566 z m 2.99218,0.1289 c -0.007,0.003 -0.0185,0.009 -0.0254,0.0117 0.01,0.005 0.0174,0.0121 0.0273,0.0176 -10e-4,-0.01 -10e-4,-0.0195 -0.002,-0.0293 z m 11.49219,1.16016 c -0.0228,0.009 -0.0306,0.0111 -0.0391,0.0137 0.002,0.005 0.004,0.009 0.006,0.0137 l 0.0332,-0.0273 z m -48.23437,4.67187 0.27734,0.22071 0.63086,-0.004 c -0.30925,-0.0468 -0.61004,-0.12688 -0.9082,-0.2168 z"
         style="display:inline;fill:url(#linearGradient6728);fill-opacity:1;fill-rule:evenodd;stroke:url(#linearGradient6816);stroke-width:1px;stroke-linecap:butt;stroke-linejoin:miter;stroke-opacity:0.48076926;filter:url(#filter6742)"
         clip-path="url(#clipPath4644)" />
      <path
         style="display:inline;opacity:1;fill:none;fill-opacity:1;fill-rule:evenodd;stroke:url(#linearGradient6709);stroke-width:3.02119803;stroke-linecap:butt;stroke-linejoin:miter;stroke-miterlimit:4;stroke-dasharray:none;stroke-opacity:1;filter:url(#filter6806)"
         d="m 387.18007,382.65061 c 0,0 -7.91346,20.15054 -7.71454,19.69699 l 1.70438,-3.88641 36.68886,0 -6.54838,-15.89891 8.34247,20.0503 c 0.0992,0.23823 -4.03669,-9.18603 -4.03669,-9.18603 l -32.38307,0 2.15288,-5.03466 28.34642,0 -28.34642,0 z"
         id="path6701"
         inkscape:connector-curvature="0"
         sodipodi:nodetypes="cscccscccccc"
         transform="translate(0,-3.8146973e-6)" />
      <path
         sodipodi:nodetypes="cscccscccccc"
         inkscape:connector-curvature="0"
         id="path4218"
         d="m 387.49452,384.67663 c 0,0 -7.7974,20.16447 -7.60141,19.7106 l 1.67939,-3.88909 36.15083,0 -6.45235,-15.9099 8.22013,20.06416 c 0.0977,0.23839 -3.97749,-9.19239 -3.97749,-9.19239 l -31.90819,0 2.12132,-5.03814 27.93072,0 -27.93072,0 z"
         style="display:inline;fill:none;fill-opacity:1;fill-rule:evenodd;stroke:#ffffff;stroke-width:3;stroke-linecap:butt;stroke-linejoin:miter;stroke-miterlimit:4;stroke-dasharray:none;stroke-opacity:1"
         transform="translate(0,-3.8146973e-6)" />
      <g
         id="g6065"
         style="display:inline;opacity:1"
         transform="translate(0,-3.8146973e-6)">
        <path
           inkscape:connector-curvature="0"
           style="fill:#cf2214;fill-opacity:1;stroke:none;stroke-width:3;stroke-linecap:butt;stroke-linejoin:round;stroke-miterlimit:4;stroke-dasharray:none;stroke-opacity:1"
           d="m 384.99414,337.74219 c -2.77669,0 -5.01172,2.23503 -5.01172,5.01172 l 0,38.06054 c 0,2.77669 2.23503,5.01172 5.01172,5.01172 l 29.04297,0 c 2.77669,0 5.01172,-2.23503 5.01172,-5.01172 l 0,-38.06054 c 0,-2.77669 -2.23503,-5.01172 -5.01172,-5.01172 l -29.04297,0 z m 6.03711,2.88476 17.21875,0 c 0.47609,0 0.85938,0.38328 0.85938,0.85938 l 0,1.3125 c 0,0.47609 -0.38329,0.85937 -0.85938,0.85937 l -17.21875,0 c -0.47609,0 -0.85938,-0.38328 -0.85937,-0.85937 l 0,-1.3125 c 0,-0.4761 0.38328,-0.85938 0.85937,-0.85938 z"
           id="rect4223" />
        <path
           style="fill:#cf2214;fill-opacity:1;fill-rule:evenodd;stroke:none;stroke-width:1px;stroke-linecap:butt;stroke-linejoin:miter;stroke-opacity:1"
           d="m 394.13432,332.20708 0.022,7.93711 11.96875,0.093 0.0111,-8.02072 -4.00363,-0.0109 0.004,4.97638 -4.00123,-0.002 -5e-4,-4.97255 z"
           id="path4229"
           inkscape:connector-curvature="0"
           sodipodi:nodetypes="ccccccccc" />
        <path
           style="fill:#cf2214;fill-opacity:1;fill-rule:evenodd;stroke:none;stroke-width:1px;stroke-linecap:butt;stroke-linejoin:miter;stroke-opacity:1"
           d="m 413.08569,333.66311 -2.96376,-3.00281 -20.98492,-0.0111 -2.99146,3.04618 c -2.42879,2.41156 0.0846,4.20433 1.97625,1.95238 l 3.01807,-2.99156 16.96018,0.004 3.04701,3.0028 c 2.26371,2.23087 4.24615,0.338 1.93863,-1.99989 z"
           id="path4231"
           inkscape:connector-curvature="0"
           sodipodi:nodetypes="sccccccss" />
      </g>
      <path
         inkscape:connector-curvature="0"
         id="path7834"
         d="m 418.53711,347.79492 -32.57031,0.0664 0.17578,12.84961 c 0,0 -0.0335,2.14166 17.07031,2.14062 9.94195,-6e-4 13.82849,-0.69712 15.39258,-1.2832 l 0,-0.26758 c 0.0258,-0.11399 -0.0444,-0.83264 0,-0.87695 0.003,-0.003 0.006,-0.004 0.01,-0.008 -0.0454,-0.1893 -0.0714,-0.37681 -0.0117,-0.58399 0.0209,-0.0503 0.0851,-0.20612 0.16015,-0.37891 -0.0904,-0.19966 -0.1582,-0.43392 -0.1582,-0.74218 l 0,-0.62696 0,-0.39648 0,-0.64844 0,-0.37109 0,-0.48438 0,-0.61523 0,-0.63867 0,-0.64649 0,-0.66211 0,-0.53125 0,-0.60937 c 10e-6,-0.20565 3e-5,-0.40959 0,-0.61524 -1e-5,-0.26655 1.1e-4,-0.53423 0,-0.80078 -3.3e-4,-0.28331 -5e-5,-0.56631 0.002,-0.84961 -10e-4,-0.36423 -0.0129,-0.72958 -0.002,-1.09375 0.0167,-0.3635 0.0388,-0.45144 -0.0215,-0.79687 -0.0218,-0.12469 -0.0379,-0.24982 -0.0566,-0.375 0.006,-0.093 0.006,-0.0864 0.01,-0.1543 z m 0.10156,12.4961 c -0.004,0.0385 -0.009,0.0767 -0.0137,0.11523 0.003,-0.003 0.006,-0.004 0.01,-0.008 0.004,-0.0358 -8.1e-4,-0.0717 0.004,-0.10742 z m -0.0176,0.15429 c -10e-4,0.0131 -0.003,0.026 -0.004,0.0391 -5e-4,0.007 0.006,0.0163 0.0137,0.041 8.3e-4,-0.0124 0.001,-0.0247 0.002,-0.0371 -0.004,-0.0144 -0.008,-0.0286 -0.0117,-0.043 z"
         style="display:inline;fill:#000000;fill-opacity:0.25641031;fill-rule:evenodd;stroke:none;stroke-width:1px;stroke-linecap:butt;stroke-linejoin:miter;stroke-opacity:1;filter:url(#filter7838)"
         transform="translate(0,-3.8146973e-6)" />
      <circle
         style="display:inline;opacity:1;fill:#000000;fill-opacity:0.44871796;stroke:none;filter:url(#filter7858)"
         id="circle7852"
         cx="389.00888"
         cy="-376.88089"
         transform="matrix(1,0,0,-1,0,-3.8146973e-6)"
         r="3.6875" />
      <circle
         r="3.6875"
         transform="matrix(1,0,0,-1,0,-3.8146973e-6)"
         cy="-376.88089"
         cx="412.94638"
         id="circle7854"
         style="display:inline;opacity:1;fill:#000000;fill-opacity:0.44871796;stroke:none;filter:url(#filter7862)" />
      <path
         sodipodi:nodetypes="cccczc"
         inkscape:connector-curvature="0"
         id="path4152"
         d="m 382.1875,358.67471 -0.1875,-12 36.125,-0.0625 0.0625,12.125 c 0,0 0.66078,1.93653 -17.6875,1.9375 -18.34828,9.7e-4 -18.3125,-2 -18.3125,-2 z"
         style="fill:#ffffff;fill-opacity:1;fill-rule:evenodd;stroke:none;stroke-width:1px;stroke-linecap:butt;stroke-linejoin:miter;stroke-opacity:1" />
      <circle
         r="3.6875"
         transform="scale(1,-1)"
         cy="-375.64346"
         cx="388.125"
         id="path4154"
         style="opacity:1;fill:#ffffff;fill-opacity:1;stroke:none" />
      <circle
         style="opacity:1;fill:#ffffff;fill-opacity:1;stroke:none"
         id="circle4156"
         cx="412.0625"
         cy="-375.64346"
         transform="scale(1,-1)"
         r="3.6875" />
    </g>
  </g>
</svg>
